<svg xmlns="http://www.w3.org/2000/svg" width="1280" height="360" viewBox="0 0 1280 360" role="img" aria-label="Spatial Intelligence Handbook">
  <defs>
    <linearGradient id="bg" x1="0" y1="0" x2="0" y2="1">
      <stop offset="0" stop-color="#0a0f1e"/>
      <stop offset="1" stop-color="#0c1424"/>
    </linearGradient>
    <linearGradient id="rule" x1="0" y1="0" x2="1" y2="0">
      <stop offset="0" stop-color="#38BDF8"/>
      <stop offset="1" stop-color="#0369A1"/>
    </linearGradient>
  </defs>

  <rect width="1280" height="360" fill="url(#bg)"/>

  <!-- point cloud (Atlas motif) -->
  <g>
        <line x1="611.4" y1="112.1" x2="632.5" y2="141.1" stroke="#38BDF8" stroke-width="0.6" opacity="0.14"/>
    <line x1="632.5" y1="141.1" x2="685.3" y2="237.9" stroke="#38BDF8" stroke-width="0.6" opacity="0.14"/>
    <line x1="685.3" y1="237.9" x2="727.6" y2="165.3" stroke="#38BDF8" stroke-width="0.6" opacity="0.14"/>
    <line x1="727.6" y1="165.3" x2="738.1" y2="68.5" stroke="#38BDF8" stroke-width="0.6" opacity="0.14"/>
    <line x1="738.1" y1="68.5" x2="843.8" y2="213.7" stroke="#38BDF8" stroke-width="0.6" opacity="0.14"/>
    <line x1="843.8" y1="213.7" x2="928.2" y2="61.3" stroke="#38BDF8" stroke-width="0.6" opacity="0.14"/>
    <line x1="928.2" y1="61.3" x2="1033.9" y2="187.1" stroke="#38BDF8" stroke-width="0.6" opacity="0.14"/>
    <line x1="1033.9" y1="187.1" x2="1076.1" y2="133.9" stroke="#38BDF8" stroke-width="0.6" opacity="0.14"/>
    <line x1="1076.1" y1="133.9" x2="1107.8" y2="172.6" stroke="#38BDF8" stroke-width="0.6" opacity="0.14"/>
    <line x1="1107.8" y1="172.6" x2="1150.1" y2="85.5" stroke="#38BDF8" stroke-width="0.6" opacity="0.14"/>
    <line x1="1150.1" y1="85.5" x2="1160.6" y2="221.0" stroke="#38BDF8" stroke-width="0.6" opacity="0.14"/>
        <circle cx="886.0" cy="119.3" r="1.9" fill="#7DD3FC" opacity="0.34"/>
    <circle cx="717.0" cy="184.7" r="2.4" fill="#7DD3FC" opacity="0.47"/>
    <circle cx="1055.0" cy="75.8" r="2.8" fill="#7DD3FC" opacity="0.59"/>
    <circle cx="632.5" cy="141.1" r="3.3" fill="#7DD3FC" opacity="0.72"/>
    <circle cx="970.5" cy="206.4" r="1.5" fill="#7DD3FC" opacity="0.24"/>
    <circle cx="801.5" cy="97.6" r="2.0" fill="#7DD3FC" opacity="0.37"/>
    <circle cx="1139.5" cy="162.9" r="2.5" fill="#7DD3FC" opacity="0.49"/>
    <circle cx="590.2" cy="228.2" r="2.9" fill="#7DD3FC" opacity="0.62"/>
    <circle cx="928.2" cy="61.3" r="3.4" fill="#7DD3FC" opacity="0.74"/>
    <circle cx="759.2" cy="126.6" r="1.6" fill="#7DD3FC" opacity="0.27"/>
    <circle cx="1097.2" cy="191.9" r="2.1" fill="#7DD3FC" opacity="0.39"/>
    <circle cx="674.8" cy="83.0" r="2.6" fill="#7DD3FC" opacity="0.52"/>
    <circle cx="1012.8" cy="148.4" r="3.0" fill="#7DD3FC" opacity="0.64"/>
    <circle cx="843.8" cy="213.7" r="9.1" fill="#38BDF8" opacity="0.10"/>
    <circle cx="843.8" cy="213.7" r="3.5" fill="#7DD3FC" opacity="0.77"/>
    <circle cx="1181.8" cy="104.8" r="1.7" fill="#7DD3FC" opacity="0.29"/>
    <circle cx="569.1" cy="170.1" r="2.2" fill="#7DD3FC" opacity="0.42"/>
    <circle cx="907.1" cy="235.5" r="2.6" fill="#7DD3FC" opacity="0.54"/>
    <circle cx="738.1" cy="68.5" r="3.1" fill="#7DD3FC" opacity="0.67"/>
    <circle cx="1076.1" cy="133.9" r="9.4" fill="#38BDF8" opacity="0.10"/>
    <circle cx="1076.1" cy="133.9" r="3.6" fill="#7DD3FC" opacity="0.79"/>
    <circle cx="653.6" cy="199.2" r="1.8" fill="#7DD3FC" opacity="0.32"/>
    <circle cx="991.6" cy="90.3" r="2.3" fill="#7DD3FC" opacity="0.44"/>
    <circle cx="822.6" cy="155.6" r="2.7" fill="#7DD3FC" opacity="0.57"/>
    <circle cx="1160.6" cy="221.0" r="3.2" fill="#7DD3FC" opacity="0.69"/>
    <circle cx="611.4" cy="112.1" r="9.6" fill="#38BDF8" opacity="0.10"/>
    <circle cx="611.4" cy="112.1" r="3.7" fill="#7DD3FC" opacity="0.82"/>
    <circle cx="949.4" cy="177.4" r="1.4" fill="#7DD3FC" opacity="0.22"/>
    <circle cx="780.4" cy="242.7" r="1.9" fill="#7DD3FC" opacity="0.35"/>
    <circle cx="1118.4" cy="56.4" r="2.4" fill="#7DD3FC" opacity="0.47"/>
    <circle cx="695.9" cy="121.8" r="2.9" fill="#7DD3FC" opacity="0.60"/>
    <circle cx="1033.9" cy="187.1" r="3.3" fill="#7DD3FC" opacity="0.72"/>
    <circle cx="864.9" cy="78.2" r="1.5" fill="#7DD3FC" opacity="0.25"/>
    <circle cx="1202.9" cy="143.5" r="2.0" fill="#7DD3FC" opacity="0.37"/>
    <circle cx="558.6" cy="208.9" r="2.5" fill="#7DD3FC" opacity="0.50"/>
    <circle cx="896.6" cy="100.0" r="3.0" fill="#7DD3FC" opacity="0.62"/>
    <circle cx="727.6" cy="165.3" r="3.4" fill="#7DD3FC" opacity="0.75"/>
    <circle cx="1065.6" cy="230.6" r="1.6" fill="#7DD3FC" opacity="0.27"/>
    <circle cx="643.1" cy="63.7" r="2.1" fill="#7DD3FC" opacity="0.40"/>
    <circle cx="981.1" cy="129.0" r="2.6" fill="#7DD3FC" opacity="0.52"/>
    <circle cx="812.1" cy="194.3" r="3.1" fill="#7DD3FC" opacity="0.65"/>
    <circle cx="1150.1" cy="85.5" r="9.2" fill="#38BDF8" opacity="0.10"/>
    <circle cx="1150.1" cy="85.5" r="3.5" fill="#7DD3FC" opacity="0.77"/>
    <circle cx="600.8" cy="150.8" r="1.7" fill="#7DD3FC" opacity="0.30"/>
    <circle cx="938.8" cy="216.1" r="2.2" fill="#7DD3FC" opacity="0.42"/>
    <circle cx="769.8" cy="107.2" r="2.7" fill="#7DD3FC" opacity="0.55"/>
    <circle cx="1107.8" cy="172.6" r="3.1" fill="#7DD3FC" opacity="0.67"/>
    <circle cx="685.3" cy="237.9" r="9.4" fill="#38BDF8" opacity="0.10"/>
    <circle cx="685.3" cy="237.9" r="3.6" fill="#7DD3FC" opacity="0.80"/>
    <circle cx="1023.3" cy="70.9" r="1.8" fill="#7DD3FC" opacity="0.32"/>
    <circle cx="854.3" cy="136.3" r="2.3" fill="#7DD3FC" opacity="0.45"/>
  </g>

  <!-- scale axis: cm -> km -->
  <g>
        <line x1="548" y1="292" x2="1224" y2="292" stroke="#1e3a5f" stroke-width="1"/>
    <line x1="575" y1="287" x2="575" y2="297" stroke="#2f5a86" stroke-width="1.4"/>
    <text x="575" y="314" fill="#7DD3FC" font-size="14" font-family="ui-monospace,SFMono-Regular,Menlo,Consolas,monospace" text-anchor="middle" font-weight="600">1&#8202;cm</text>
    <text x="575" y="332" fill="#5b7290" font-size="11.5" font-family="ui-monospace,SFMono-Regular,Menlo,Consolas,monospace" text-anchor="middle">manipulation</text>
    <line x1="791" y1="287" x2="791" y2="297" stroke="#2f5a86" stroke-width="1.4"/>
    <text x="791" y="314" fill="#7DD3FC" font-size="14" font-family="ui-monospace,SFMono-Regular,Menlo,Consolas,monospace" text-anchor="middle" font-weight="600">1&#8202;m</text>
    <text x="791" y="332" fill="#5b7290" font-size="11.5" font-family="ui-monospace,SFMono-Regular,Menlo,Consolas,monospace" text-anchor="middle">humanoid&#8202;/&#8202;ground</text>
    <line x1="994" y1="287" x2="994" y2="297" stroke="#2f5a86" stroke-width="1.4"/>
    <text x="994" y="314" fill="#7DD3FC" font-size="14" font-family="ui-monospace,SFMono-Regular,Menlo,Consolas,monospace" text-anchor="middle" font-weight="600">100&#8202;m</text>
    <text x="994" y="332" fill="#5b7290" font-size="11.5" font-family="ui-monospace,SFMono-Regular,Menlo,Consolas,monospace" text-anchor="middle">aerial</text>
    <line x1="1190" y1="287" x2="1190" y2="297" stroke="#2f5a86" stroke-width="1.4"/>
    <text x="1190" y="314" fill="#7DD3FC" font-size="14" font-family="ui-monospace,SFMono-Regular,Menlo,Consolas,monospace" text-anchor="middle" font-weight="600">1&#8202;km</text>
    <text x="1190" y="332" fill="#5b7290" font-size="11.5" font-family="ui-monospace,SFMono-Regular,Menlo,Consolas,monospace" text-anchor="middle">driving&#8202;/&#8202;marine</text>
  </g>

  <!-- wordmark -->
  <text x="64" y="112" fill="#5b7290" font-size="15" letter-spacing="4" font-family="ui-monospace,SFMono-Regular,Menlo,Consolas,monospace">照见 · PULSAR · CROSS-EMBODIMENT SPATIAL AI</text>
  <text x="62" y="182" font-size="60" font-weight="800" font-family="-apple-system,BlinkMacSystemFont,'Segoe UI',Roboto,Helvetica,Arial,sans-serif" letter-spacing="-1.5">
    <tspan fill="#38BDF8">Spatial</tspan><tspan fill="#eaf4ff"> Intelligence</tspan>
  </text>
  <text x="64" y="232" fill="#eaf4ff" font-size="60" font-weight="800" font-family="-apple-system,BlinkMacSystemFont,'Segoe UI',Roboto,Helvetica,Arial,sans-serif" letter-spacing="-1.5">Handbook</text>
  <rect x="66" y="256" width="132" height="3" rx="1.5" fill="url(#rule)"/>
  <text x="64" y="292" fill="#9fb4cc" font-size="17" font-family="-apple-system,BlinkMacSystemFont,'Segoe UI',Roboto,Helvetica,Arial,sans-serif">One problem &#8212; SLAM, VIO, 3D reconstruction &#8212; read across every embodiment.</text>
  <text x="64" y="316" fill="#5b7290" font-size="14" font-family="ui-monospace,SFMono-Regular,Menlo,Consolas,monospace">daily arxiv pipeline &#183; 5-axis ontology &#183; a living paper atlas, not a static survey</text>
</svg>
